<mxfile host="app.diagrams.net" modified="2022-01-23T15:17:40.597Z" agent="5.0 (Windows NT 10.0; Win64; x64) AppleWebKit/537.36 (KHTML, like Gecko) Chrome/96.0.4664.110 YaBrowser/22.1.0.2517 Yowser/2.5 Safari/537.36" etag="prVmcI_2ziHzDUDzZAby" version="16.2.7" type="github">
  <diagram id="ZO-AGhtKClDNNNneMZw2" name="Page-1">
    <mxGraphModel dx="1374" dy="765" grid="1" gridSize="10" guides="1" tooltips="1" connect="1" arrows="1" fold="1" page="1" pageScale="1" pageWidth="827" pageHeight="1169" math="0" shadow="0">
      <root>
        <mxCell id="0" />
        <mxCell id="1" parent="0" />
        <mxCell id="SGOO2aHBa5-MgdrPZ_4--1" value="" style="shape=cylinder3;whiteSpace=wrap;html=1;boundedLbl=1;backgroundOutline=1;size=15;" vertex="1" parent="1">
          <mxGeometry x="380" y="350" width="60" height="80" as="geometry" />
        </mxCell>
      </root>
    </mxGraphModel>
  </diagram>
</mxfile>
